<svg class="jar" version="1.1" xmlns="http://www.w3.org/2000/svg" xmlns:xlink="http://www.w3.org/1999/xlink" x="0px" y="0px" viewBox="87.5294 219.433 76.0658 137.719" xml:space="preserve">
    <g id="jar">
    <path id="jar-outline" fill="#27525C" d="M127.189,357.152c-21.828,0-31.697-8.172-34.202-10.678c-6.001-6.001-5.63-28.776-5.303-48.871 c0.073-4.479,0.142-8.711,0.142-12.657c0-10.315,0.576-34.882,5.913-40.219c4.458-4.458,2.015-18.768,1.989-18.911 c-0.026-0.148,0.016-0.301,0.115-0.415c0.099-0.113,0.25-0.179,0.394-0.173l57.389,1.672c0.149,0.004,0.289,0.074,0.381,0.192 c0.092,0.117,0.127,0.27,0.095,0.415c-0.026,0.123-2.613,12.332,2.274,17.22c6.078,6.078,6.916,22.922,6.916,40.219 c0,3.616,0.068,7.649,0.141,11.92c0.315,18.551,0.707,41.638-4.485,49.53C155.684,351.358,145.407,357.152,127.189,357.152z M94.095,245.082l0.354,0.354c-5.214,5.214-5.619,31.559-5.619,39.51c0,3.954-0.069,8.19-0.142,12.674 c-0.324,19.895-0.692,42.445,5.009,48.146c1.424,1.425,4.707,4.166,10.693,6.521c6.512,2.563,14.182,3.862,22.799,3.862 c8.131,0,15.461-1.204,21.198-3.481c4.501-1.786,8.046-4.273,9.723-6.822c5.022-7.635,4.634-30.55,4.32-48.962 c-0.072-4.274-0.141-8.313-0.141-11.938c0-16.263-0.787-33.674-6.623-39.51c-4.686-4.687-3.144-14.951-2.661-17.551 l-56.191-1.637c0.438,2.874,1.958,14.864-2.366,19.188L94.095,245.082z"/>
    <g id="jar-top">
        <path id="color-fill" fill="#e5f9ff" d="M123.915,238.544c-20.448,0-27.468-2.229-29.251-4.012c-1.783-1.783,0.223-3.789,0-5.349 c-0.223-1.561-1.56-3.454,0-5.795c1.56-2.34,14.441-3.454,30.901-3.454s28.717,1.783,30.166,4.123 c1.449,2.34-0.334,2.897-0.445,5.182s1.003,3.51,0.223,4.847C154.728,235.424,144.141,238.544,123.915,238.544z"/>
        <path id="outline" fill="#27525C" d="M123.915,239.046c-22.141,0-28.053-2.605-29.606-4.159c-1.362-1.362-0.864-2.848-0.464-4.041 c0.198-0.591,0.385-1.149,0.322-1.592c-0.05-0.352-0.17-0.744-0.297-1.16c-0.413-1.351-0.925-3.031,0.376-4.983 c2.133-3.199,20.537-3.678,31.318-3.678c13.883,0,28.727,1.349,30.592,4.361c1.042,1.683,0.595,2.664,0.162,3.613 c-0.243,0.535-0.495,1.089-0.534,1.856c-0.045,0.921,0.128,1.671,0.28,2.332c0.215,0.934,0.418,1.814-0.124,2.743 c-0.836,1.432-6.984,2.637-8.849,2.972C142.687,238.102,135.088,239.046,123.915,239.046z M125.564,220.436 c-20.91,0-29.49,1.741-30.483,3.231c-1.038,1.557-0.638,2.867-0.251,4.135c0.138,0.453,0.27,0.882,0.331,1.311 c0.097,0.678-0.137,1.377-0.364,2.052c-0.376,1.122-0.701,2.09,0.222,3.014c1.163,1.162,6.304,3.865,28.897,3.865 c21.123,0,30.635-3.353,31.16-4.21c0.326-0.559,0.229-1.074,0.014-2.012c-0.159-0.689-0.356-1.547-0.305-2.606 c0.047-0.96,0.353-1.631,0.622-2.224c0.41-0.9,0.658-1.442-0.102-2.67C154.137,222.438,143.318,220.436,125.564,220.436z"/>
        <path id="left-thread" fill="#27525C" d="M114.951,233.697c-0.015,0-0.03,0-0.045-0.002c-0.044-0.004-4.466-0.397-9.023-1.005 c-9.383-1.251-10.181-2.163-10.482-2.507c-0.183-0.209-0.162-0.525,0.047-0.708c0.208-0.183,0.525-0.161,0.708,0.047 c0.199,0.229,1.5,1.059,9.856,2.173c4.535,0.605,8.938,0.997,8.982,1.001c0.276,0.024,0.479,0.269,0.455,0.544 C115.426,233.5,115.207,233.697,114.951,233.697z"/>
        <path id="right-thread" fill="#27525C" d="M129.952,234.17c-0.67,0-1.332-0.009-1.984-0.028c-0.276-0.008-0.495-0.238-0.487-0.515 c0.009-0.272,0.232-0.488,0.502-0.488c0.005,0,0.01,0.001,0.014,0.001c11.404,0.327,26.045-2.415,26.192-2.443 c0.271-0.052,0.533,0.127,0.586,0.399c0.052,0.272-0.128,0.535-0.399,0.586C154.235,231.708,141.103,234.17,129.952,234.17z"/>
        <path id="high-thread" fill="#27525C" d="M121.869,229.752c-15.188,0-23.78-1.825-26.791-3.59c-0.239-0.141-0.319-0.448-0.179-0.687 c0.14-0.239,0.447-0.319,0.686-0.179c3.028,1.774,12.056,3.61,28.324,3.44c15.767-0.165,30.148-2.477,30.291-2.5 c0.273-0.046,0.531,0.141,0.576,0.414c0.044,0.273-0.142,0.531-0.415,0.575c-0.144,0.023-14.596,2.349-30.441,2.514 C123.224,229.749,122.54,229.752,121.869,229.752z"/>
    </g>
    <path id="front-sheen" fill="#eeffff" opacity=".8" d="M142.733,255.863c0,0,6.562,25.823,5.308,46.131c-1.254,20.309-2.243,41.619-6.909,46.132 c2.856,0,6.617,0,6.617,0s8.546-17.048,6.532-59.419c-1.507-31.725-6.24-32.844-6.24-32.844H142.733z"/>
    <path id="back-bottom" opacity=".1" fill="#27525C" d="M100.368,343.613c-0.221,0-0.423-0.146-0.484-0.371c-0.072-0.269,0.086-0.543,0.354-0.614 c13.155-3.536,22.134-3.945,27.745-3.945c6.438,0,17.715,1.535,17.828,1.551c0.274,0.037,0.466,0.291,0.429,0.564 c-0.037,0.275-0.293,0.466-0.564,0.429c-0.112-0.015-11.323-1.541-17.692-1.541c-5.553,0-14.444,0.405-27.484,3.911 C100.455,343.607,100.411,343.613,100.368,343.613z"/>
    <ellipse id="top-sheen" opacity="0.3" fill="#FFFFFF" cx="131.66" cy="224.783" rx="22.621" ry="1.949"/>
    </g>
</svg>
